<svg xmlns="http://www.w3.org/2000/svg" xmlns:xlink="http://www.w3.org/1999/xlink" width="26" height="26" viewBox="0 0 26 26">
    <defs>
        <path id="tqbjlye8pb" d="M1.133 0h21.734c.553 0 1 .448 1 1 0 .041-.002.083-.008.124l-1.75 14c-.062.5-.487.876-.992.876H2.883c-.505 0-.93-.376-.992-.876l-1.75-14C.072.576.46.076 1.009.008 1.049.003 1.09 0 1.133 0z"/>
        <path id="w5kca4ngza" d="M1.25 1.25H8.75V8.75H1.25z"/>
        <mask id="myxj2eload" width="7.5" height="7.5" x="0" y="0" fill="#fff" maskContentUnits="userSpaceOnUse" maskUnits="objectBoundingBox">
            <use xlink:href="#w5kca4ngza"/>
        </mask>
    </defs>
    <g fill="none" fill-rule="evenodd">
        <g>
            <g>
                <g transform="translate(-21 -320) translate(21 320) translate(1 7)">
                    <mask id="wf0c7pr8ec" fill="#fff">
                        <use xlink:href="#tqbjlye8pb"/>
                    </mask>
                    <use fill="#324B61" xlink:href="#tqbjlye8pb"/>
                    <path fill="#223A4F" d="M2 15h20c0 .552-.448 1-1 1H3c-.552 0-1-.448-1-1z" mask="url(#wf0c7pr8ec)"/>
                    <path fill="#485F74" d="M0 0h24c0 .552-.448 1-1 1H1C.448 1 0 .552 0 0z" mask="url(#wf0c7pr8ec)" transform="matrix(1 0 0 -1 0 1)"/>
                    <g mask="url(#wf0c7pr8ec)">
                        <g transform="translate(7 3)">
                            <use stroke="#FFF" stroke-dasharray="1.25 .625" stroke-width="1.25" mask="url(#myxj2eload)" xlink:href="#w5kca4ngza"/>
                            <path fill="#FFF" stroke="#FFF" stroke-width=".625" d="M7.813.313H9.687999999999999V2.188H7.813zM7.813 7.813H9.687999999999999V9.687999999999999H7.813z"/>
                            <path fill="#324B61" stroke="#FFF" stroke-width=".625" d="M0.313 0.313H2.188V2.188H0.313z"/>
                            <path fill="#FFF" stroke="#FFF" stroke-width=".625" d="M0.313 7.813H2.188V9.687999999999999H0.313z"/>
                        </g>
                    </g>
                </g>
                <path fill="#324B61" d="M4 3h6.465c.334 0 .646.167.832.445L13 6H3V4c0-.552.448-1 1-1z" transform="translate(-21 -320) translate(21 320)"/>
            </g>
        </g>
    </g>
</svg>
