<svg xmlns="http://www.w3.org/2000/svg" width="20" height="20" viewBox="0 0 20 20">
    <g fill="none" fill-rule="evenodd">
        <g>
            <g>
                <g>
                    <path fill="#556068" d="M15.19 4c.447 0 .81.363.81.81v8.942c0 .448-.363.81-.81.81H12L10 17l-1.997-2.438H4.811c-.448 0-.811-.362-.811-.81V4.81C4 4.363 4.363 4 4.81 4h10.38zM10 6.766c-.752 0-1.504.251-2.14.691-.637.44-1.042 1.07-1.332 1.824.29.755.753 1.384 1.331 1.824.579.44 1.389.692 2.141.692s1.504-.252 2.14-.692c.637-.44 1.042-1.07 1.332-1.824-.29-.754-.753-1.383-1.331-1.824-.637-.44-1.389-.691-2.141-.691zm0 .817c.405 0 .81.189 1.1.503.346.315.462.755.462 1.195 0 .44-.116.88-.463 1.195-.289.315-.694.503-1.099.503s-.81-.188-1.1-.503c-.346-.314-.462-.755-.462-1.195.01-.933.703-1.687 1.562-1.698zm0 .692c-.231 0-.463.126-.636.314-.174.19-.29.44-.29.692 0 .252.116.503.29.692.173.189.405.314.636.314.231 0 .463-.125.636-.314.174-.189.29-.44.29-.692 0-.251-.058-.503-.29-.692-.231-.188-.405-.314-.636-.314z" transform="translate(-93 -175) translate(93 175)"/>
                </g>
            </g>
        </g>
    </g>
</svg>
