<svg xmlns="http://www.w3.org/2000/svg" width="20" height="20" viewBox="0 0 20 20">
    <g fill="none" fill-rule="evenodd">
        <g>
            <g>
                <path fill="#278bfe" d="M15 12c.552 0 1 .448 1 1v2c0 .552-.448 1-1 1H5c-.552 0-1-.448-1-1v-2c0-.552.448-1 1-1h10zm-4 1c-.552 0-1 .448-1 1s.448 1 1 1 1-.448 1-1-.448-1-1-1zm3 0c-.552 0-1 .448-1 1s.448 1 1 1 1-.448 1-1-.448-1-1-1zm-3-9v3h3l-4 4-4-4h3V4h2z" transform="translate(-357 -59) translate(357 59)"/>
            </g>
        </g>
    </g>
</svg>
