<svg xmlns="http://www.w3.org/2000/svg" width="18" height="18" viewBox="0 0 18 18">
    <g fill="none" fill-rule="evenodd">
        <g>
            <g>
                <path fill="#278bfe" fill-rule="nonzero" d="M9 5C6.273 5 3.944 6.659 3 9c.944 2.341 3.273 4 6 4 2.73 0 5.056-1.659 6-4-.944-2.341-3.27-4-6-4zm0 6.667c-1.505 0-2.727-1.195-2.727-2.667 0-1.472 1.222-2.667 2.727-2.667S11.727 7.528 11.727 9c0 1.472-1.222 2.667-2.727 2.667zM9 7.4c-.903 0-1.636.717-1.636 1.6 0 .883.733 1.6 1.636 1.6.903 0 1.636-.717 1.636-1.6 0-.883-.733-1.6-1.636-1.6z" transform="translate(-59 -487) translate(59 487)"/>
            </g>
        </g>
    </g>
</svg>
