<svg xmlns="http://www.w3.org/2000/svg" width="18" height="18" viewBox="0 0 18 18">
    <g fill="none" fill-rule="evenodd">
        <g>
            <g>
                <path fill="#278bfe" fill-rule="nonzero" d="M11 2.866l.866.5-7 12.124-.866-.5 1.67-2.896C4.469 11.382 3.523 10.295 3 9c.944-2.341 3.273-4 6-4 .251 0 .5.014.743.041L11 2.866zm.612 2.673C13.155 6.21 14.378 7.457 15 9c-.944 2.341-3.27 4-6 4-.547 0-1.077-.067-1.584-.192l.734-1.273c.268.085.553.132.85.132 1.505 0 2.727-1.195 2.727-2.667 0-.807-.367-1.53-.947-2.02l.832-1.44zm-1.386 2.402c.255.282.41.653.41 1.059 0 .883-.733 1.6-1.636 1.6-.1 0-.2-.009-.295-.026l1.52-2.633zM8.997 6.333C7.495 6.333 6.273 7.528 6.273 9c0 .503.143.974.39 1.376l.708-1.225c-.005-.05-.007-.1-.007-.151 0-.634.379-1.183.927-1.442l.706-1.225z" transform="translate(-59 -513) translate(59 513)"/>
            </g>
        </g>
    </g>
</svg>
