<svg xmlns="http://www.w3.org/2000/svg" width="18" height="18" viewBox="0 0 18 18">
    <g fill="none" fill-rule="evenodd">
        <g>
            <g>
                <path fill="#FFF" d="M11 2.866l.866.5-7 12.124-.866-.5 1.402-2.428h-.591c-.448 0-.811-.362-.811-.81V5.81C4 5.363 4.363 5 4.81 5l4.958-.001L11 2.866zM13.19 5c.447 0 .81.363.81.81v5.942c0 .448-.363.81-.81.81H11L9 15l-1.648-2.012.978-1.693c.248.051.5.078.745.078.752 0 1.504-.251 2.14-.692.637-.44 1.042-1.069 1.332-1.823-.29-.755-.753-1.384-1.331-1.824-.102-.07-.206-.136-.313-.196L11.964 5h1.225zM10.33 7.832c.226.294.306.66.306 1.026 0 .44-.116.88-.463 1.195-.289.314-.694.503-1.099.503-.1 0-.2-.012-.298-.034l.384-.666.03-.002c.19-.034.376-.147.52-.305.174-.188.29-.44.29-.691 0-.122-.014-.244-.054-.36l.384-.666zm-1.34-1.487l.084-.003c-.752 0-1.504.252-2.14.692-.637.44-1.042 1.069-1.332 1.824.238.619.592 1.154 1.031 1.569l.88-1.522-.001-.047c.007-.683.38-1.27.916-1.54l.562-.973z" transform="translate(-31 -513) translate(31 513)"/>
            </g>
        </g>
    </g>
</svg>
