<svg xmlns="http://www.w3.org/2000/svg" xmlns:xlink="http://www.w3.org/1999/xlink" width="26" height="26" viewBox="0 0 26 26">
    <defs>
        <path id="d8ns6vlwia" d="M1 0h18c.552 0 1 .448 1 1v14c0 .552-.448 1-1 1H1c-.552 0-1-.448-1-1V1c0-.552.448-1 1-1z"/>
    </defs>
    <g fill="none" fill-rule="evenodd">
        <g>
            <g>
                <g transform="translate(-57 -278) translate(57 278) translate(3 7)">
                    <mask id="bbojrynivb" fill="#fff">
                        <use xlink:href="#d8ns6vlwia"/>
                    </mask>
                    <use fill="#324B61" xlink:href="#d8ns6vlwia"/>
                    <path fill="#223A4F" d="M0 15h20c0 .552-.448 1-1 1H1c-.552 0-1-.448-1-1z" mask="url(#bbojrynivb)"/>
                    <path fill="#485F74" d="M-2 0h24c0 .552-.448 1-1 1H-1c-.552 0-1-.448-1-1z" mask="url(#bbojrynivb)" transform="matrix(1 0 0 -1 0 1)"/>
                    <path fill="#FFF" d="M7.5 10.5V13H5v-2.5h2.5zm-.625.625h-1.25v1.25h1.25v-1.25zm1.61-2.223l.378.378-.805.805-.189-.189-.189-.189.806-.805zm1.612-1.611l.377.378-.805.805-.378-.377.806-.806zm1.61-1.611l.19.189.188.189-.805.805-.378-.377.806-.806zM15 3v2.5h-2.5V3H15z" mask="url(#bbojrynivb)"/>
                </g>
                <path fill="#324B61" d="M4 3h6.465c.334 0 .646.167.832.445L13 6H3V4c0-.552.448-1 1-1z" transform="translate(-57 -278) translate(57 278)"/>
            </g>
        </g>
    </g>
</svg>
