<svg xmlns="http://www.w3.org/2000/svg" width="20" height="20" viewBox="0 0 20 20">
    <g fill="none" fill-rule="evenodd">
        <g>
            <g>
                <path fill="#FFF" d="M10 3c2.21 0 4 1.79 4 4s-1.79 4-4 4-4-1.79-4-4 1.79-4 4-4zM7.766 4.643c-.423.355-.478.986-.123 1.409.355.423.986.478 1.409.123.423-.355.478-.986.123-1.409-.355-.423-.986-.478-1.409-.123zM10.5 11.25v.758c3.632.11 6.5 1.407 6.5 2.992 0 1.657-3.134 3-7 3s-7-1.343-7-3c0-1.585 2.867-2.882 6.5-2.992v-.756c.16.027.326.04.495.04.172 0 .34-.014.505-.041zm0 .758v1.882c1.146.091 2.01.495 2.01.98 0 .553-1.12 1-2.5 1s-2.5-.447-2.5-1c0-.482.853-.884 1.989-.978v-1.883c-3.035.11-5.836 1.207-5.836 2.63 0 1.5 2.802 2.652 6.337 2.652 3.535 0 6.33-1.296 6.33-2.796 0-1.422-2.794-2.39-5.83-2.487zm0 1.886v.606c0 .276-.224.5-.5.5s-.5-.224-.5-.5l-.001-.604c-.904.091-1.572.418-1.572.808 0 .46.932.833 2.083.833 1.15 0 2.083-.373 2.083-.833 0-.393-.679-.722-1.593-.81z" transform="translate(-171 -59) translate(171 59)"/>
            </g>
        </g>
    </g>
</svg>
