<svg xmlns="http://www.w3.org/2000/svg" xmlns:xlink="http://www.w3.org/1999/xlink" width="26" height="26" viewBox="0 0 26 26">
    <defs>
        <path id="xbuqjbpy9a" d="M1 0h18c.552 0 1 .448 1 1v14c0 .552-.448 1-1 1H1c-.552 0-1-.448-1-1V1c0-.552.448-1 1-1z"/>
    </defs>
    <g fill="none" fill-rule="evenodd">
        <g>
            <g>
                <g transform="translate(-93 -278) translate(93 278) translate(3 7)">
                    <mask id="4hxah9umnb" fill="#fff">
                        <use xlink:href="#xbuqjbpy9a"/>
                    </mask>
                    <use fill="#324B61" xlink:href="#xbuqjbpy9a"/>
                    <path fill="#223A4F" d="M0 15h20c0 .552-.448 1-1 1H1c-.552 0-1-.448-1-1z" mask="url(#4hxah9umnb)"/>
                    <path fill="#485F74" d="M-2 0h24c0 .552-.448 1-1 1H-1c-.552 0-1-.448-1-1z" mask="url(#4hxah9umnb)" transform="matrix(1 0 0 -1 0 1)"/>
                </g>
                <path fill="#324B61" d="M4 3h6.465c.334 0 .646.167.832.445L13 6H3V4c0-.552.448-1 1-1z" transform="translate(-93 -278) translate(93 278)"/>
                <g>
                    <path fill="#FFF" d="M5 .625c1.38 0 2.5 1.12 2.5 2.5s-1.12 2.5-2.5 2.5-2.5-1.12-2.5-2.5S3.62.625 5 .625zM3.604 1.652c-.265.222-.3.616-.077.88.222.265.616.3.88.077.265-.222.3-.616.077-.88-.222-.265-.616-.3-.88-.077zM5.313 5.781v2.032c0 .172-.14.312-.313.312s-.313-.14-.313-.313v-2.03c.101.017.205.026.31.026.108 0 .213-.01.316-.027z" transform="translate(-93 -278) translate(93 278) translate(8 10)"/>
                    <path fill="#FFF" d="M4.996 6.25H5c2.014 0 3.956.622 3.956 1.56 0 .937-1.746 1.747-3.956 1.747s-3.96-.72-3.96-1.658c0-.937 1.944-1.648 3.956-1.649H5c2.416 0 4.375.84 4.375 1.875C9.375 9.161 7.416 10 5 10S.625 9.16.625 8.125c0-1.035 1.957-1.874 4.372-1.875z" transform="translate(-93 -278) translate(93 278) translate(8 10)"/>
                    <path fill="#FFF" d="M5.005 7.42h.001c.72 0 1.302.232 1.302.52 0 .288-.583.52-1.302.52-.719 0-1.302-.232-1.302-.52 0-.287.582-.52 1.3-.52h.002c.863 0 1.563.279 1.563.624s-.7.625-1.563.625-1.562-.28-1.562-.625.699-.625 1.561-.625z" transform="translate(-93 -278) translate(93 278) translate(8 10)"/>
                </g>
            </g>
        </g>
    </g>
</svg>
