<svg xmlns="http://www.w3.org/2000/svg" width="20" height="20" viewBox="0 0 20 20">
    <g fill="#007AFF" fill-rule="evenodd">
        <path d="M10.887 8.741c4.604.254 8.204 2.468 8.204 5.16 0 2.864-4.07 5.186-9.091 5.186-5.02 0-9.09-2.322-9.09-5.185 0-2.693 3.597-4.906 8.2-5.16-4.216.234-7.502 2.123-7.502 4.419 0 2.455 3.757 4.444 8.392 4.444s8.392-1.99 8.392-4.444c0-2.246-3.145-4.102-7.23-4.402zM10 8.717zm0 0a16.216 16.216 0 0 1 .295.002zM10 3.131L12.483.91H7.517z"/>
        <path fill-rule="nonzero" d="M10 3.636l5.455 3.185v6.358L10 16.364l-5.455-3.185V6.821L10 3.636zm-4.09 4.79v3.967l3.448 2.013v-3.988L5.91 8.425zm8.18-.015l-3.367 1.958v3.988l3.367-1.964V8.411zM10 5.22L6.563 7.224 10 9.21l3.425-1.992L10 5.22z"/>
    </g>
</svg>
