<svg xmlns="http://www.w3.org/2000/svg" width="20" height="20" viewBox="0 0 20 20">
    <g fill="none" fill-rule="evenodd">
        <g>
            <g>
                <path fill="#278bfe" d="M11.997 4c.264 0 .514.114.686.313l3.096 3.578c.143.165.221.376.221.594v6.608c0 .501-.406.907-.907.907H4.907C4.406 16 4 15.594 4 15.093V4.907C4 4.406 4.406 4 4.907 4h7.09zM10 9.947c-.96 0-1.737.778-1.737 1.737 0 .96.778 1.737 1.737 1.737.96 0 1.737-.778 1.737-1.737 0-.959-.778-1.737-1.737-1.737zm.842-4.368H5.58v1.79h5.263v-1.79z" transform="translate(-21 -175) rotate(90 -67 108) rotate(-90 10 10)"/>
            </g>
        </g>
    </g>
</svg>
