<svg xmlns="http://www.w3.org/2000/svg" xmlns:xlink="http://www.w3.org/1999/xlink" width="19" height="37" viewBox="0 0 19 37">
    <defs>
        <filter id="xpztrffsob" width="233.3%" height="121.1%" x="-66.7%" y="-10.5%" filterUnits="objectBoundingBox">
            <feGaussianBlur in="SourceAlpha" result="shadowBlurInner1" stdDeviation="1"/>
            <feOffset dx="-1" dy="2" in="shadowBlurInner1" result="shadowOffsetInner1"/>
            <feComposite in="shadowOffsetInner1" in2="SourceAlpha" k2="-1" k3="1" operator="arithmetic" result="shadowInnerInner1"/>
            <feColorMatrix in="shadowInnerInner1" values="0 0 0 0 0.100669785 0 0 0 0 0.169270833 0 0 0 0 0.0476912832 0 0 0 0.204436189 0"/>
        </filter>
        <filter id="mwyvawvqhe" width="106.7%" height="106.7%" x="-3.3%" y="-3.3%" filterUnits="objectBoundingBox">
            <feGaussianBlur in="SourceAlpha" result="shadowBlurInner1" stdDeviation=".5"/>
            <feOffset in="shadowBlurInner1" result="shadowOffsetInner1"/>
            <feComposite in="shadowOffsetInner1" in2="SourceAlpha" k2="-1" k3="1" operator="arithmetic" result="shadowInnerInner1"/>
            <feColorMatrix in="shadowInnerInner1" values="0 0 0 0 0.733061025 0 0 0 0 1 0 0 0 0 0.719618056 0 0 0 0.603657156 0"/>
        </filter>
        <filter id="el3xp88uqf" width="354.1%" height="281.5%" x="-127.1%" y="-90.8%" filterUnits="objectBoundingBox">
            <feGaussianBlur in="SourceGraphic" stdDeviation="2"/>
        </filter>
        <linearGradient id="fpjexeh95d" x1="8.304%" x2="72.11%" y1="0%" y2="82.752%">
            <stop offset="0%" stop-color="#58ED52"/>
            <stop offset="100%" stop-color="#1AB213"/>
        </linearGradient>
        <circle id="tdclnf75ic" cx="7.5" cy="7.5" r="7.5"/>
        <path id="aixbo71nma" d="M8 15h3v17.5c0 .828-.672 1.5-1.5 1.5S8 33.328 8 32.5V15z"/>
    </defs>
    <g fill="none" fill-rule="evenodd">
        <g>
            <g transform="translate(-494 -293) translate(494 293)">
                <ellipse cx="9.5" cy="34.5" fill="#000" fill-opacity=".2" rx="6.5" ry="2.5"/>
                <g>
                    <use fill="#FFF" xlink:href="#aixbo71nma"/>
                    <use fill="#000" filter="url(#xpztrffsob)" xlink:href="#aixbo71nma"/>
                </g>
                <path stroke="#FFF" stroke-width="2" d="M9.5 1c-2.347 0-4.472.951-6.01 2.49C1.95 5.028 1 7.153 1 9.5c0 2.038.717 3.908 1.913 5.372C3.96 16.156 5.377 17.127 7 17.626V32.5c0 .69.28 1.315.732 1.768C8.185 34.72 8.81 35 9.5 35s1.315-.28 1.768-.732c.452-.453.732-1.078.732-1.768V17.626c1.624-.499 3.04-1.47 4.088-2.754C17.283 13.407 18 11.538 18 9.5c0-2.347-.951-4.472-2.49-6.01C13.972 1.95 11.847 1 9.5 1z"/>
                <g transform="translate(2 2)">
                    <mask id="ieaxd3i6og" fill="#fff">
                        <use xlink:href="#tdclnf75ic"/>
                    </mask>
                    <g>
                        <use fill="url(#fpjexeh95d)" xlink:href="#tdclnf75ic"/>
                        <use fill="#000" filter="url(#mwyvawvqhe)" xlink:href="#tdclnf75ic"/>
                    </g>
                    <ellipse cx="4.194" cy="3.194" fill="#CFEAFF" fill-opacity=".52" filter="url(#el3xp88uqf)" mask="url(#ieaxd3i6og)" rx="2.361" ry="3.306" transform="rotate(41 4.194 3.194)"/>
                    <ellipse cx="3.688" cy="2.938" fill="#FFF" fill-opacity=".2" mask="url(#ieaxd3i6og)" rx="2" ry="1.5" transform="rotate(-42 3.688 2.938)"/>
                </g>
            </g>
        </g>
    </g>
</svg>
